<svg width="341" height="341" viewBox="0 0 341 341" fill="none" xmlns="http://www.w3.org/2000/svg">
<path d="M268.216 52.0825L268.257 52.0422L268.293 51.9983L287.566 28.8659L287.606 28.8174L287.642 28.765C289.186 26.4663 290.887 25.2679 292.641 24.8068C294.411 24.3414 296.407 24.5816 298.61 25.4886C303.064 27.3217 308.002 31.7287 312.758 37.3055C317.485 42.8482 321.92 49.4112 325.389 55.3744C328.874 61.3639 331.325 66.6471 332.151 69.6366L332.167 69.6942L332.188 69.75C354.311 127.327 320.796 197.136 262.443 211.46C250.911 212.897 239.23 213.055 227.486 212.937C224.327 212.905 221.16 212.854 217.991 212.802C209.386 212.661 200.76 212.521 192.207 212.779C189.388 212.777 187.625 212.141 186.538 211.046C185.443 209.945 184.795 208.14 184.759 205.257L184.759 205.247C184.457 190.38 184.23 175.592 184.003 160.8C183.967 157.916 184.49 156.153 185.433 155.09C186.351 154.055 187.901 153.425 190.579 153.388L190.582 153.388C197.936 153.27 205.244 153.285 212.587 153.299C215.04 153.304 217.498 153.309 219.963 153.309H219.989L220.016 153.308L220.526 153.286C224.817 153.099 238.038 152.523 246.408 152.522C267.458 152.764 281.115 136.664 284.774 118.592C288.429 100.541 282.217 80.0343 263.093 71.2168C261.261 70.0856 260.422 68.7323 260.148 67.3034C259.862 65.8048 260.168 64.0655 260.937 62.1927C262.479 58.4351 265.687 54.5996 268.216 52.0825Z" fill="url(#paint0_linear_1500_914)"/>
<path d="M268.216 52.0825L268.257 52.0422L268.293 51.9983L287.566 28.8659L287.606 28.8174L287.642 28.765C289.186 26.4663 290.887 25.2679 292.641 24.8068C294.411 24.3414 296.407 24.5816 298.61 25.4886C303.064 27.3217 308.002 31.7287 312.758 37.3055C317.485 42.8482 321.92 49.4112 325.389 55.3744C328.874 61.3639 331.325 66.6471 332.151 69.6366L332.167 69.6942L332.188 69.75C354.311 127.327 320.796 197.136 262.443 211.46C250.911 212.897 239.23 213.055 227.486 212.937C224.327 212.905 221.16 212.854 217.991 212.802C209.386 212.661 200.76 212.521 192.207 212.779C189.388 212.777 187.625 212.141 186.538 211.046C185.443 209.945 184.795 208.14 184.759 205.257L184.759 205.247C184.457 190.38 184.23 175.592 184.003 160.8C183.967 157.916 184.49 156.153 185.433 155.09C186.351 154.055 187.901 153.425 190.579 153.388L190.582 153.388C197.936 153.27 205.244 153.285 212.587 153.299C215.04 153.304 217.498 153.309 219.963 153.309H219.989L220.016 153.308L220.526 153.286C224.817 153.099 238.038 152.523 246.408 152.522C267.458 152.764 281.115 136.664 284.774 118.592C288.429 100.541 282.217 80.0343 263.093 71.2168C261.261 70.0856 260.422 68.7323 260.148 67.3034C259.862 65.8048 260.168 64.0655 260.937 62.1927C262.479 58.4351 265.687 54.5996 268.216 52.0825Z" stroke="url(#paint1_linear_1500_914)" stroke-width="2.45197"/>
<path d="M268.216 52.0825L268.257 52.0422L268.293 51.9983L287.566 28.8659L287.606 28.8174L287.642 28.765C289.186 26.4663 290.887 25.2679 292.641 24.8068C294.411 24.3414 296.407 24.5816 298.61 25.4886C303.064 27.3217 308.002 31.7287 312.758 37.3055C317.485 42.8482 321.92 49.4112 325.389 55.3744C328.874 61.3639 331.325 66.6471 332.151 69.6366L332.167 69.6942L332.188 69.75C354.311 127.327 320.796 197.136 262.443 211.46C250.911 212.897 239.23 213.055 227.486 212.937C224.327 212.905 221.16 212.854 217.991 212.802C209.386 212.661 200.76 212.521 192.207 212.779C189.388 212.777 187.625 212.141 186.538 211.046C185.443 209.945 184.795 208.14 184.759 205.257L184.759 205.247C184.457 190.38 184.23 175.592 184.003 160.8C183.967 157.916 184.49 156.153 185.433 155.09C186.351 154.055 187.901 153.425 190.579 153.388L190.582 153.388C197.936 153.27 205.244 153.285 212.587 153.299C215.04 153.304 217.498 153.309 219.963 153.309H219.989L220.016 153.308L220.526 153.286C224.817 153.099 238.038 152.523 246.408 152.522C267.458 152.764 281.115 136.664 284.774 118.592C288.429 100.541 282.217 80.0343 263.093 71.2168C261.261 70.0856 260.422 68.7323 260.148 67.3034C259.862 65.8048 260.168 64.0655 260.937 62.1927C262.479 58.4351 265.687 54.5996 268.216 52.0825Z" stroke="url(#paint2_linear_1500_914)" stroke-opacity="0.58" stroke-width="2.45197"/>
<path d="M238.044 2.15685L238.049 2.15676C252.812 1.9239 266.316 5.10314 279.553 10.9415C282.081 12.0868 283.119 13.2095 283.367 14.239C283.612 15.2609 283.207 16.7416 281.375 18.9538L281.37 18.9599C275.318 26.3651 269.111 33.6619 262.912 40.9508C261.612 42.4794 260.312 44.0077 259.013 45.5366C257.516 47.3005 256.162 49.0894 254.879 50.785C254.537 51.2379 254.199 51.6841 253.865 52.1215C252.265 54.2163 250.741 56.1175 249.067 57.7185C245.786 60.8576 241.911 62.8686 235.75 62.5731C233.752 62.4635 231.229 62.2342 228.362 61.9737C221.162 61.3194 211.794 60.4681 203.138 60.8218C197.064 61.0699 191.186 61.91 186.511 63.8852C181.823 65.8653 178.223 69.0474 176.993 73.995C176.257 76.1618 176.185 78.1324 177.528 79.4835C178.159 80.1182 178.992 80.4855 179.882 80.6998C180.774 80.9146 181.806 80.9957 182.932 80.9957L241.841 80.9957C242.436 81.0365 243.278 81.0326 244.177 81.0284C244.568 81.0266 244.97 81.0247 245.368 81.0265C246.771 81.0326 248.219 81.0802 249.406 81.2831C249.998 81.3844 250.475 81.5165 250.828 81.6738C251.187 81.8342 251.325 81.9794 251.371 82.0525C251.392 82.0856 251.443 82.1659 251.383 82.414C251.315 82.6993 251.106 83.1525 250.603 83.8008C242.589 93.4262 234.138 102.569 225.667 111.732C219.591 118.306 213.504 124.89 207.563 131.67C201.176 138.699 193.89 142.558 184.462 141.886C181.581 141.647 179.259 141.945 177.767 143.539C176.326 145.079 176.001 147.49 176.038 150.433C175.962 188.832 176.265 227.229 176.718 265.623C176.717 275.178 174.576 283.494 168.048 290.593L168.004 290.641L167.965 290.693C166.239 293.021 164.557 295.311 162.901 297.568C152.501 311.734 143.102 324.537 129.857 336.655C125.956 339.448 123.806 339.325 122.554 338.459C121.845 337.969 121.213 337.121 120.679 335.884C120.149 334.654 119.753 333.125 119.464 331.389C118.886 327.913 118.768 323.799 118.742 319.986C118.736 319.114 118.735 318.252 118.734 317.416C118.731 314.699 118.729 312.256 118.554 310.622C118.012 280.65 118.496 250.559 118.981 220.436C119.137 210.748 119.293 201.057 119.415 191.365C119.915 151.535 119.841 111.717 116.813 72.2014L116.803 72.0643L116.762 71.9329C115.679 68.4289 114.35 65.9151 112.186 64.3323C110.024 62.7514 107.244 62.2571 103.653 62.2567C90.3405 62.1652 77.0922 62.2154 63.8573 62.2656C43.7032 62.3421 23.5803 62.4184 3.30928 61.9937C9.74833 53.2854 16.8779 45.3356 24.1945 37.4988C26.0966 35.4614 28.0129 33.4302 29.9328 31.395C35.9104 25.0587 41.9241 18.6842 47.6603 11.9668C53.6783 5.25446 60.965 2.31464 69.9388 2.31426C77.9598 2.33677 85.9797 2.3625 93.9985 2.38822C142.038 2.54235 190.041 2.69635 238.044 2.15685Z" fill="url(#paint3_linear_1500_914)" stroke="url(#paint4_linear_1500_914)" stroke-width="2.45197"/>
<defs>
<linearGradient id="paint0_linear_1500_914" x1="422.231" y1="283.532" x2="182.805" y2="48.9023" gradientUnits="userSpaceOnUse">
<stop offset="0.466667" stop-color="#FFB8A0"/>
<stop offset="0.671667" stop-color="#FBE0CC"/>
<stop offset="0.856667" stop-color="#FFF1D9"/>
</linearGradient>
<linearGradient id="paint1_linear_1500_914" x1="238.565" y1="162.02" x2="261.525" y2="214.194" gradientUnits="userSpaceOnUse">
<stop stop-color="#C9B6ED" stop-opacity="0"/>
<stop offset="1" stop-color="white"/>
</linearGradient>
<linearGradient id="paint2_linear_1500_914" x1="243.161" y1="40.7082" x2="213.983" y2="74.4837" gradientUnits="userSpaceOnUse">
<stop stop-color="white"/>
<stop offset="1" stop-opacity="0"/>
</linearGradient>
<linearGradient id="paint3_linear_1500_914" x1="207.986" y1="-29.244" x2="90.2712" y2="423.227" gradientUnits="userSpaceOnUse">
<stop stop-color="#B385FF"/>
<stop offset="1" stop-color="#3F00A6"/>
</linearGradient>
<linearGradient id="paint4_linear_1500_914" x1="179.806" y1="340.287" x2="0.936159" y2="124.644" gradientUnits="userSpaceOnUse">
<stop stop-color="#C5C4EE"/>
<stop offset="1" stop-color="white" stop-opacity="0"/>
</linearGradient>
</defs>
</svg>
