<svg width="68" height="68" viewBox="0 0 68 68" fill="none" xmlns="http://www.w3.org/2000/svg">
<circle cx="34" cy="34" r="34" fill="url(#paint0_linear_128_6393)"/>
<path d="M46.2103 35.0989C47.5868 35.0989 48.9069 35.6457 49.8802 36.619C50.8535 37.5923 51.4003 38.9124 51.4003 40.2889V42.0189C51.4003 48.8385 44.9647 55.8589 34.1003 55.8589C23.2359 55.8589 16.8003 48.8385 16.8003 42.0189V40.2889C16.8003 38.9124 17.3471 37.5923 18.3204 36.619C19.2937 35.6457 20.6138 35.0989 21.9903 35.0989H46.2103ZM34.1003 12.6089C36.6238 12.6089 39.044 13.6114 40.8284 15.3958C42.6128 17.1802 43.6153 19.6004 43.6153 22.1239C43.6153 24.6474 42.6128 27.0676 40.8284 28.852C39.044 30.6364 36.6238 31.6389 34.1003 31.6389C31.5768 31.6389 29.1566 30.6364 27.3722 28.852C25.5878 27.0676 24.5853 24.6474 24.5853 22.1239C24.5853 19.6004 25.5878 17.1802 27.3722 15.3958C29.1566 13.6114 31.5768 12.6089 34.1003 12.6089Z" fill="#603B10"/>
<defs>
<linearGradient id="paint0_linear_128_6393" x1="34" y1="0" x2="34" y2="68" gradientUnits="userSpaceOnUse">
<stop stop-color="#FFE45B"/>
<stop offset="1" stop-color="#FFC15C"/>
</linearGradient>
</defs>
</svg>
