<svg width="12px" height="12px" viewBox="0 0 56 56" fill="none" xmlns="http://www.w3.org/2000/svg">
<path d="M40.1107 27.9989C41.4872 27.9989 42.8073 28.5457 43.7806 29.519C44.7539 30.4923 45.3007 31.8124 45.3007 33.1889V34.9189C45.3007 41.7386 38.8651 48.7589 28.0007 48.7589C17.1363 48.7589 10.7007 41.7386 10.7007 34.9189V33.1889C10.7007 31.8124 11.2475 30.4923 12.2208 29.519C13.1941 28.5457 14.5142 27.9989 15.8907 27.9989H40.1107ZM28.0007 5.50891C30.5242 5.50891 32.9444 6.51138 34.7288 8.29579C36.5132 10.0802 37.5157 12.5004 37.5157 15.0239C37.5157 17.5474 36.5132 19.9676 34.7288 21.752C32.9444 23.5364 30.5242 24.5389 28.0007 24.5389C25.4772 24.5389 23.057 23.5364 21.2726 21.752C19.4882 19.9676 18.4857 17.5474 18.4857 15.0239C18.4857 12.5004 19.4882 10.0802 21.2726 8.29579C23.057 6.51138 25.4772 5.50891 28.0007 5.50891Z" fill="#603B10"/>
</svg>
